<mxfile host="Electron" agent="Mozilla/5.0 (Windows NT 10.0; Win64; x64) AppleWebKit/537.36 (KHTML, like Gecko) draw.io/26.2.15 Chrome/134.0.6998.205 Electron/35.2.1 Safari/537.36" version="26.2.15">
  <diagram id="fYynVcecHBdHNUM5QK_q" name="第 1 页">
    <mxGraphModel dx="488" dy="127" grid="1" gridSize="10" guides="1" tooltips="1" connect="1" arrows="1" fold="1" page="0" pageScale="1" pageWidth="827" pageHeight="1169" background="#C0C0C0" math="0" shadow="1">
      <root>
        <mxCell id="0" />
        <mxCell id="1" parent="0" />
        <mxCell id="z72un4E-akb4Dwajm9Xf-61" value="Buff_So" style="swimlane;fontStyle=1;align=center;verticalAlign=top;childLayout=stackLayout;horizontal=1;startSize=26;horizontalStack=0;resizeParent=1;resizeParentMax=0;resizeLast=0;collapsible=1;marginBottom=0;whiteSpace=wrap;html=1;" vertex="1" parent="1">
          <mxGeometry x="480" y="430" width="255" height="141" as="geometry" />
        </mxCell>
        <mxCell id="z72un4E-akb4Dwajm9Xf-62" value="&lt;font style=&quot;font-size: 10px;&quot;&gt;字段:&lt;/font&gt;&lt;div&gt;&lt;font style=&quot;font-size: 10px;&quot;&gt;float 耕地肥力 //控制作物生长速度的系数之一&lt;/font&gt;&lt;/div&gt;&lt;div&gt;&lt;font style=&quot;font-size: 10px;&quot;&gt;float 耕地水分 //控制作物是否能生长的条件之一&lt;/font&gt;&lt;/div&gt;" style="text;strokeColor=none;fillColor=none;align=left;verticalAlign=top;spacingLeft=4;spacingRight=4;overflow=hidden;rotatable=0;points=[[0,0.5],[1,0.5]];portConstraint=eastwest;whiteSpace=wrap;html=1;" vertex="1" parent="z72un4E-akb4Dwajm9Xf-61">
          <mxGeometry y="26" width="255" height="64" as="geometry" />
        </mxCell>
        <mxCell id="z72un4E-akb4Dwajm9Xf-63" value="" style="line;strokeWidth=1;fillColor=none;align=left;verticalAlign=middle;spacingTop=-1;spacingLeft=3;spacingRight=3;rotatable=0;labelPosition=right;points=[];portConstraint=eastwest;strokeColor=inherit;" vertex="1" parent="z72un4E-akb4Dwajm9Xf-61">
          <mxGeometry y="90" width="255" height="8" as="geometry" />
        </mxCell>
        <mxCell id="z72un4E-akb4Dwajm9Xf-64" value="&lt;font style=&quot;font-size: 10px;&quot;&gt;函数:&lt;/font&gt;" style="text;strokeColor=none;fillColor=none;align=left;verticalAlign=top;spacingLeft=4;spacingRight=4;overflow=hidden;rotatable=0;points=[[0,0.5],[1,0.5]];portConstraint=eastwest;whiteSpace=wrap;html=1;" vertex="1" parent="z72un4E-akb4Dwajm9Xf-61">
          <mxGeometry y="98" width="255" height="43" as="geometry" />
        </mxCell>
        <mxCell id="z72un4E-akb4Dwajm9Xf-65" value="BuffBehv_So" style="swimlane;fontStyle=1;align=center;verticalAlign=top;childLayout=stackLayout;horizontal=1;startSize=26;horizontalStack=0;resizeParent=1;resizeParentMax=0;resizeLast=0;collapsible=1;marginBottom=0;whiteSpace=wrap;html=1;" vertex="1" parent="1">
          <mxGeometry x="850" y="440" width="255" height="141" as="geometry" />
        </mxCell>
        <mxCell id="z72un4E-akb4Dwajm9Xf-66" value="&lt;font style=&quot;font-size: 10px;&quot;&gt;字段:&lt;/font&gt;&lt;div&gt;&lt;font style=&quot;font-size: 10px;&quot;&gt;float 耕地肥力 //控制作物生长速度的系数之一&lt;/font&gt;&lt;/div&gt;&lt;div&gt;&lt;font style=&quot;font-size: 10px;&quot;&gt;float 耕地水分 //控制作物是否能生长的条件之一&lt;/font&gt;&lt;/div&gt;" style="text;strokeColor=none;fillColor=none;align=left;verticalAlign=top;spacingLeft=4;spacingRight=4;overflow=hidden;rotatable=0;points=[[0,0.5],[1,0.5]];portConstraint=eastwest;whiteSpace=wrap;html=1;" vertex="1" parent="z72un4E-akb4Dwajm9Xf-65">
          <mxGeometry y="26" width="255" height="64" as="geometry" />
        </mxCell>
        <mxCell id="z72un4E-akb4Dwajm9Xf-67" value="" style="line;strokeWidth=1;fillColor=none;align=left;verticalAlign=middle;spacingTop=-1;spacingLeft=3;spacingRight=3;rotatable=0;labelPosition=right;points=[];portConstraint=eastwest;strokeColor=inherit;" vertex="1" parent="z72un4E-akb4Dwajm9Xf-65">
          <mxGeometry y="90" width="255" height="8" as="geometry" />
        </mxCell>
        <mxCell id="z72un4E-akb4Dwajm9Xf-68" value="&lt;font style=&quot;font-size: 10px;&quot;&gt;函数:&lt;/font&gt;" style="text;strokeColor=none;fillColor=none;align=left;verticalAlign=top;spacingLeft=4;spacingRight=4;overflow=hidden;rotatable=0;points=[[0,0.5],[1,0.5]];portConstraint=eastwest;whiteSpace=wrap;html=1;" vertex="1" parent="z72un4E-akb4Dwajm9Xf-65">
          <mxGeometry y="98" width="255" height="43" as="geometry" />
        </mxCell>
      </root>
    </mxGraphModel>
  </diagram>
</mxfile>
